<svg viewBox="-23 0 512 512" xmlns="http://www.w3.org/2000/svg"><path d="m308.523438 0c-4.144532 0-7.5 3.359375-7.5 7.5s3.355468 7.5 7.5 7.5c78.746093 0 142.808593 64.0625 142.808593 142.8125 0 4.140625 3.359375 7.5 7.5 7.5 4.144531 0 7.5-3.359375 7.5-7.5 0-87.019531-70.792969-157.8125-157.808593-157.8125zm0 0"/><path d="m308.523438 48.199219c-4.144532 0-7.5 3.355469-7.5 7.5 0 4.140625 3.355468 7.5 7.5 7.5 52.167968 0 94.609374 42.441406 94.609374 94.609375 0 4.144531 3.359376 7.5 7.5 7.5 4.144532 0 7.5-3.355469 7.5-7.5 0-60.4375-49.171874-109.609375-109.609374-109.609375zm0 0"/><path d="m308.523438 98.019531c-4.144532 0-7.5 3.355469-7.5 7.5 0 4.140625 3.355468 7.5 7.5 7.5 24.699218 0 44.792968 20.09375 44.792968 44.792969 0 4.140625 3.355469 7.5 7.5 7.5 4.140625 0 7.5-3.359375 7.5-7.5 0-32.972656-26.824218-59.792969-59.792968-59.792969zm0 0"/><path d="m350.5625 484.765625c-5.023438-28.589844-29.738281-49.335937-58.761719-49.335937h-21.65625l-28.132812-55.34375c33.191406-1.289063 65.15625-12.703126 91.933593-33.140626 3.054688-2.332031 5.050782-5.867187 5.480469-9.699218.429688-3.851563-.75-7.765625-3.234375-10.734375l-72.917968-87.199219 21.628906-34.582031c2.113281.398437 4.253906.597656 6.402344.597656 7.753906 0 15.554687-2.613281 21.957031-7.964844 7.019531-5.875 11.335937-14.128906 12.148437-23.246093.8125-9.117188-1.972656-18.007813-7.84375-25.027344-12.121094-14.5-33.777344-16.429688-48.273437-4.308594-8.175781 6.835938-12.351563 16.703125-12.269531 26.605469l-37.867188 15.167969-72.914062-87.195313c-2.484376-2.972656-6.128907-4.824219-9.996094-5.082031-3.839844-.261719-7.675782 1.082031-10.511719 3.675781-30.902344 28.265625-49.496094 66.890625-52.347656 108.765625-2.863281 42.003906 10.4375 82.929688 37.453125 115.238281 5.671875 6.78125 11.828125 13.039063 18.394531 18.730469l-15.210937 29.925781c-1.875 3.695313-.40625 8.210938 3.289062 10.085938 1.089844.554687 2.25.816406 3.390625.816406 2.734375 0 5.371094-1.5 6.695313-4.105469l13.855468-27.261718c22.339844 15.929687 48.484375 25.992187 76.375 29.066406 2.484375.273437 4.964844.488281 7.445313.652344l28.242187 55.5625h-155.410156l13.300781-26.167969c1.878907-3.691407.40625-8.207031-3.289062-10.085938-3.691407-1.875-8.203125-.40625-10.082031 3.289063l-16.757813 32.964844h-21.65625c-29.023437 0-53.738281 20.75-58.761719 49.339843l-.332031 1.886719c-1.105469 6.304688.617187 12.730469 4.734375 17.632812 4.113281 4.898438 10.144531 7.710938 16.546875 7.710938h308.003906c6.398438 0 12.429688-2.8125 16.546875-7.714844 4.113282-4.898437 5.839844-11.328125 4.734375-17.628906zm-71.648438-328.476563c3.5-2.925781 7.820313-4.488281 12.328126-4.488281.582031 0 1.164062.023438 1.746093.078125 5.128907.457032 9.769531 2.882813 13.070313 6.832032 3.304687 3.949218 4.871094 8.945312 4.414062 14.074218-.457031 5.125-2.886718 9.769532-6.835937 13.070313-8.148438 6.816406-20.324219 5.730469-27.144531-2.421875-6.816407-8.152344-5.730469-20.328125 2.421874-27.144532zm-18.414062 29.863282c1.1875 2.421875 2.679688 4.742187 4.488281 6.902344 1.804688 2.164062 3.824219 4.042968 6 5.640624l-17.835937 28.511719-23.875-28.550781zm-30.144531 178.960937c-.195313-.015625-.390625-.023437-.585938-.023437-3.492187-.140625-6.992187-.398438-10.496093-.785156-28.054688-3.097657-54.164063-13.976563-75.78125-31.265626-.109376-.097656-.226563-.1875-.34375-.277343-7.519532-6.050781-14.488282-12.878907-20.800782-20.429688-24.519531-29.324219-36.59375-66.472656-33.996094-104.59375 1.796876-26.371093 10.46875-51.320312 24.972657-72.691406l125.421875 149.988281c1.484375 1.773438 3.613281 2.6875 5.757812 2.6875 1.699219 0 3.40625-.570312 4.808594-1.746094 3.175781-2.65625 3.597656-7.386718.941406-10.5625l-127.632812-152.632812c3.90625-4.625 8.117187-9.03125 12.617187-13.195312l188.9375 225.9375c-4.894531 3.695312-9.980469 7.058593-15.222656 10.082031l-35.878906-42.902344c-2.65625-3.175781-7.386719-3.601563-10.5625-.941406-3.179688 2.65625-3.601563 7.386719-.941407 10.5625l33.667969 40.265625c-20.28125 9.015625-42.394531 13.324218-64.882812 12.523437zm104.316406 129.527344c-.738281.882813-2.378906 2.359375-5.058594 2.359375h-308.003906c-2.679687 0-4.320313-1.476562-5.058594-2.359375-.742187-.878906-1.914062-2.75-1.449219-5.390625l.332032-1.886719c3.757812-21.402343 22.261718-36.933593 43.988281-36.933593h232.375c21.730469 0 40.230469 15.53125 43.988281 36.929687l.332032 1.890625c.464843 2.640625-.707032 4.511719-1.445313 5.390625zm0 0"/></svg>
